Coordinates
version=1
nRows=13
nColumns=22
inDegrees=yes

Units are S.I. units (second, meters, Newtons, ...)
If the header above contains a line with 'inDegrees', this indicates whether rotational values are in degrees (yes) or radians (no).

endheader
time	pelvis_tilt	pelvis_list	pelvis_rotation	pelvis_tx	pelvis_ty	pelvis_tz	hip_flexion_r	hip_adduction_r	hip_rotation_r	knee_angle_r	ankle_angle_r	subtalar_angle_r	hip_flexion_l	hip_adduction_l	hip_rotation_l	knee_angle_l	ankle_angle_l	subtalar_angle_l	lumbar_extension	lumbar_bending	lumbar_rotation
      2.71000000	     -3.85324151	     -0.93193480	    -63.38359755	      0.30697231	      0.90589439	     -0.01230687	    -12.30481516	     10.71774534	     14.86021564	    -10.68781330	     15.64062402	     -9.39514514	     29.46780368	     -7.12611362	      6.92126285	    -13.93249753	      5.88646315	      3.58833088	     -4.28232503	      3.17854867	      4.39964047
      2.72000000	     -4.00950300	     -0.97816995	    -63.95988334	      0.31231550	      0.90406016	     -0.00432106	    -13.02646344	     10.59940091	     15.33934809	    -10.62281572	     15.70014745	     -9.44064087	     29.54710408	     -7.24987211	      6.51153745	    -13.55595353	      6.01407254	      3.38045168	     -4.21178169	      3.30997659	      4.78953550
      2.73000000	     -4.19680970	     -0.95694275	    -64.49975719	      0.31765056	      0.90215068	      0.00376417	    -13.61427526	     10.49651236	     15.82236938	    -10.66071059	     15.77294862	     -9.43928982	     29.77246435	     -7.33930427	      6.31476495	    -13.67753304	      5.92851476	      3.27545125	     -4.04575183	      3.42070802	      5.08960865
      2.74000000	     -4.33994123	     -0.89927637	    -65.04323567	      0.32303264	      0.90034481	      0.01202342	    -14.13795322	     10.33770780	     16.27679026	    -10.79831582	     15.73469208	     -9.47087703	     30.03071263	     -7.36013904	      6.24862218	    -14.22417424	      5.72080729	      3.16074402	     -3.84843466	      3.46030470	      5.39912735
      2.75000000	     -4.46401728	     -0.76765206	    -65.53671586	      0.32849121	      0.89858006	      0.02042631	    -14.55460047	     10.14700997	     16.68170073	    -11.01593360	     15.66749309	     -9.50832056	     30.39084771	     -7.28816692	      6.42586911	    -15.15857266	      5.27237211	      3.08350536	     -3.55867477	      3.42940397	      5.64063837
      2.76000000	     -4.53725064	     -0.56171945	    -65.96317587	      0.33411197	      0.89692372	      0.02894214	    -14.86751000	      9.89933677	     17.01253073	    -11.32731666	     15.53337046	     -9.52339439	     30.83359054	     -7.08067477	      6.81178300	    -16.40640988	      4.55040843	      3.08835820	     -3.19019415	      3.31209761	      5.76392355
      2.77000000	     -4.53528610	     -0.30139851	    -66.31501513	      0.33988971	      0.89545423	      0.03762308	    -15.11928652	      9.58425143	     17.24431876	    -11.70734032	     15.31724874	     -9.51551918	     31.31738830	     -6.72706261	      7.35127422	    -17.88277910	      3.61591139	      3.16569897	     -2.76936804	      3.07833569	      5.79170974
      2.78000000	     -4.43798444	     -0.00951626	    -66.59847350	      0.34586973	      0.89425160	      0.04647168	    -15.34778945	      9.18756431	     17.39392629	    -12.14197415	     14.99351910	     -9.48760650	     31.80069571	     -6.22665240	      7.94612037	    -19.51248333	      2.56969054	      3.28315906	     -2.32991064	      2.73035807	      5.73344539
      2.79000000	     -4.27729660	      0.32380218	    -66.80661082	      0.35201982	      0.89326079	      0.05550124	    -15.52493868	      8.74511835	     17.45952628	    -12.63986404	     14.58059841	     -9.41389749	     32.32802421	     -5.61830765	      8.50480590	    -21.27643935	      1.56666567	      3.50615126	     -1.84419892	      2.29066312	      5.57407408
      2.80000000	     -3.99424057	      0.64476113	    -66.96312267	      0.35831891	      0.89266390	      0.06476109	    -15.74065376	      8.21488843	     17.43686594	    -13.17503279	     13.98617015	     -9.32353638	     32.74109733	     -4.90026278	      8.96315242	    -23.01290400	      0.64018633	      3.67913377	     -1.40076645	      1.71390937	      5.38455441
      2.81000000	     -3.60827588	      0.92636412	    -67.10145407	      0.36467698	      0.89247606	      0.07425922	    -15.99917816	      7.62789973	     17.37287027	    -13.77328536	     13.16702626	     -9.26307453	     33.00956654	     -4.14059939	      9.22526875	    -24.67872473	     -0.08756958	      3.77448021	     -1.02678521	      1.03316267	      5.17918152
      2.82000000	     -3.17478476	      1.21976497	    -67.19882855	      0.37113241	      0.89253720	      0.08390269	    -16.19839999	      7.01995663	     17.17945503	    -14.47330766	     12.23313917	     -9.11488984	     33.19832487	     -3.34708625	      9.39749576	    -26.23242053	     -0.57109266	      3.93795121	     -0.64564972	      0.29252972	      4.97956282
      2.83000000	     -2.67895034	      1.48788134	    -67.28202071	      0.37762448	      0.89290381	      0.09370427	    -16.38991088	      6.38273716	     16.87786044	    -15.25144403	     11.15996051	     -8.73832276	     33.24022506	     -2.54353310	      9.42446475	    -27.63443842	     -0.79579611	      4.20242022	     -0.30797930	     -0.50653132	      4.76887296
